<svg viewBox="0 0 780 142" fill="none" xmlns="http://www.w3.org/2000/svg">
  <!-- TheProfesseer — full lockup: owl mark + "Professeer" wordmark -->
  <path d="M139.811 138.418L139.985 37.6184L181.635 37.7025C182.615 37.7045 183.875 37.7537 185.415 37.8501C186.955 37.8999 188.378 38.0428 189.684 38.2787C195.516 39.1772 200.319 41.1235 204.094 44.1178C207.916 47.1122 210.732 50.8979 212.545 55.4749C214.403 60.0053 215.328 65.0472 215.318 70.6005C215.309 76.1072 214.367 81.1453 212.492 85.7149C210.618 90.2378 207.765 93.9887 203.933 96.9676C200.148 99.9466 195.361 101.874 189.573 102.749C188.266 102.933 186.819 103.07 185.232 103.16C183.692 103.25 182.455 103.294 181.522 103.292L156.742 103.242L156.681 138.452L139.811 138.418ZM156.769 87.4924L180.849 87.541C181.783 87.5429 182.833 87.4983 183.999 87.4073C185.166 87.3164 186.24 87.1319 187.22 86.8539C190.022 86.1595 192.217 84.9273 193.807 83.1571C195.443 81.3871 196.59 79.3827 197.247 77.1441C197.951 74.9055 198.305 72.7129 198.309 70.5662C198.312 68.4195 197.966 66.2255 197.27 63.9841C196.62 61.6961 195.481 59.6638 193.85 57.8872C192.267 56.1106 190.076 54.8695 187.277 54.1639C186.297 53.8819 185.224 53.7164 184.058 53.6674C182.891 53.5717 181.841 53.5229 180.908 53.521L156.828 53.4724L156.769 87.4924Z" fill="#7B0925"/>
  <path d="M219.425 138.579L219.556 62.9791L234.466 63.0092L234.434 81.4191L232.618 79.0355C233.556 76.5174 234.796 74.2332 236.34 72.183C237.93 70.0862 239.823 68.3633 242.019 67.0144C243.888 65.7582 245.943 64.7823 248.184 64.0869C250.472 63.3448 252.806 62.9062 255.186 62.771C257.566 62.5891 259.876 62.6871 262.116 63.065L262.088 78.8149C259.85 78.1571 257.26 77.9419 254.32 78.1693C251.426 78.3968 248.811 79.2082 246.475 80.6034C244.14 81.8587 242.224 83.4649 240.727 85.4218C239.277 87.3789 238.2 89.6168 237.495 92.1353C236.791 94.6073 236.437 97.2899 236.432 100.183L236.365 138.613L219.425 138.579Z" fill="#7B0925"/>
  <path d="M297.562 140.837C290.002 140.821 283.402 139.105 277.761 135.687C272.12 132.269 267.742 127.57 264.625 121.59C261.556 115.564 260.028 108.654 260.041 100.861C260.055 92.9275 261.654 85.9774 264.837 80.0105C268.021 74.0436 272.439 69.3858 278.091 66.0372C283.744 62.6886 290.28 61.0218 297.7 61.0368C305.307 61.0522 311.93 62.7689 317.571 66.1869C323.212 69.605 327.59 74.3272 330.707 80.3535C333.823 86.3331 335.374 93.2196 335.361 101.013C335.347 108.853 333.749 115.78 330.565 121.793C327.428 127.76 323.033 132.441 317.381 135.837C311.728 139.185 305.122 140.852 297.562 140.837ZM297.59 125.017C304.31 125.03 309.307 122.8 312.581 118.327C315.855 113.854 317.499 108.07 317.511 100.977C317.524 93.6502 315.877 87.8135 312.571 83.4669C309.266 79.0735 304.299 76.8701 297.673 76.8568C293.146 76.8476 289.411 77.8668 286.467 79.9142C283.571 81.915 281.419 84.734 280.013 88.3711C278.607 91.9616 277.899 96.1369 277.891 100.897C277.878 108.224 279.525 114.084 282.831 118.477C286.183 122.824 291.103 125.004 297.59 125.017Z" fill="#7B0925"/>
  <path d="M347.499 138.837L347.631 62.0476C347.635 60.1343 347.708 58.0344 347.852 55.748C347.996 53.415 348.397 51.1058 349.054 48.8204C349.711 46.5351 350.905 44.4608 352.635 42.5976C354.786 40.222 357.098 38.5933 359.573 37.7116C362.095 36.7834 364.569 36.2751 366.996 36.1866C369.423 36.0515 371.546 35.9858 373.366 35.9895L382.816 36.0086L382.793 49.7285L374.043 49.7109C370.823 49.7044 368.418 50.5162 366.828 52.1463C365.286 53.7299 364.512 55.8283 364.507 58.4416L364.369 138.872L347.499 138.837ZM335.426 76.443L335.449 63.213L382.769 63.3085L382.746 76.5385L335.426 76.443Z" fill="#7B0925"/>
  <path d="M415.661 141.075C408.007 141.06 401.29 139.389 395.509 136.064C389.728 132.739 385.21 128.134 381.953 122.247C378.743 116.36 377.145 109.591 377.158 101.937C377.172 93.6773 378.771 86.5172 381.955 80.4569C385.139 74.35 389.557 69.6222 395.21 66.2736C400.862 62.925 407.398 61.2582 414.818 61.2732C422.658 61.289 429.305 63.1458 434.759 66.8435C440.259 70.4946 444.334 75.6595 446.982 82.3382C449.631 89.0169 450.62 96.8822 449.951 105.934L433.221 105.9L433.232 99.7404C433.2 91.527 431.763 85.5275 428.923 81.7417C426.083 77.956 421.606 76.0569 415.493 76.0446C408.586 76.0307 403.449 78.167 400.082 82.4535C396.715 86.6934 395.024 92.92 395.01 101.133C394.996 108.787 396.666 114.717 400.019 118.923C403.372 123.13 408.268 125.24 414.708 125.253C418.861 125.261 422.433 124.359 425.423 122.545C428.459 120.684 430.797 118.006 432.437 114.509L449.088 119.582C446.183 126.39 441.694 131.678 435.621 135.445C429.594 139.213 422.941 141.09 415.661 141.075ZM389.682 105.813L389.704 93.0726L441.713 93.1776L441.691 105.918L389.682 105.813Z" fill="#7B0925"/>
  <path d="M484.899 141.215C475.566 141.196 467.986 139.081 462.16 134.869C456.334 130.657 452.798 124.747 451.551 117.137L468.775 114.512C469.656 118.247 471.611 121.191 474.64 123.344C477.67 125.497 481.495 126.578 486.115 126.587C490.175 126.595 493.303 125.808 495.499 124.226C497.742 122.597 498.865 120.383 498.87 117.583C498.873 115.856 498.456 114.479 497.617 113.45C496.826 112.376 495.054 111.345 492.303 110.36C489.551 109.374 485.33 108.129 479.639 106.624C473.295 104.931 468.258 103.124 464.528 101.204C460.798 99.2361 458.119 96.9207 456.49 94.2574C454.862 91.5941 454.05 88.3724 454.057 84.5924C454.065 79.8791 455.309 75.775 457.788 72.28C460.268 68.785 463.726 66.1086 468.162 64.2509C472.599 62.3465 477.827 61.4004 483.847 61.4125C489.727 61.4244 494.929 62.3449 499.452 64.174C504.022 66.0033 507.705 68.6007 510.499 71.9664C513.293 75.332 515.013 79.2788 515.658 83.8068L498.433 86.852C498.019 83.6312 496.553 81.0849 494.036 79.2131C491.566 77.3415 488.255 76.2848 484.102 76.0431C480.136 75.8017 476.938 76.4019 474.509 77.8437C472.08 79.2388 470.863 81.2197 470.858 83.7864C470.856 85.233 471.344 86.4707 472.322 87.4993C473.3 88.528 475.258 89.5586 478.197 90.5912C481.182 91.6239 485.613 92.8928 491.49 94.398C497.507 95.9502 502.311 97.7332 505.901 99.7471C509.538 101.714 512.147 104.076 513.729 106.833C515.357 109.59 516.168 112.928 516.161 116.848C516.148 124.455 513.361 130.422 507.801 134.751C502.286 139.08 494.653 141.235 484.899 141.215Z" fill="#7B0925"/>
  <path d="M550.841 141.348C541.508 141.329 533.928 139.214 528.102 135.002C522.276 130.79 518.74 124.88 517.493 117.271L534.717 114.645C535.598 118.38 537.553 121.324 540.582 123.477C543.612 125.63 547.437 126.711 552.057 126.72C556.117 126.729 559.245 125.942 561.441 124.359C563.684 122.73 564.807 120.516 564.812 117.716C564.815 115.989 564.398 114.612 563.559 113.584C562.768 112.509 560.996 111.478 558.245 110.493C555.493 109.507 551.272 108.262 545.581 106.757C539.237 105.064 534.2 103.258 530.47 101.337C526.74 99.3692 524.061 97.0538 522.432 94.3905C520.804 91.7272 519.993 88.5055 519.999 84.7255C520.007 80.0122 521.251 75.9081 523.73 72.4131C526.21 68.9181 529.668 66.2417 534.104 64.384C538.541 62.4796 543.769 61.5335 549.789 61.5456C555.669 61.5575 560.871 62.478 565.394 64.3071C569.965 66.1364 573.647 68.7338 576.441 72.0995C579.235 75.4651 580.955 79.4119 581.601 83.9399L564.375 86.9851C563.961 83.7643 562.495 81.218 559.978 79.3462C557.508 77.4746 554.197 76.4179 550.044 76.1762C546.078 75.9348 542.88 76.5351 540.451 77.9768C538.022 79.3719 536.805 81.3528 536.801 83.9195C536.798 85.3661 537.286 86.6038 538.264 87.6324C539.242 88.6611 541.201 89.6917 544.139 90.7243C547.124 91.757 551.555 93.0259 557.432 94.5311C563.45 96.0833 568.253 97.8663 571.843 99.8802C575.48 101.848 578.089 104.21 579.671 106.966C581.299 109.723 582.11 113.061 582.104 116.981C582.09 124.588 579.303 130.555 573.743 134.884C568.228 139.213 560.595 141.368 550.841 141.348Z" fill="#7B0925"/>
  <path d="M621.963 141.491C614.31 141.476 607.593 139.806 601.812 136.481C596.031 133.156 591.512 128.55 588.256 122.663C585.046 116.777 583.448 110.007 583.461 102.354C583.475 94.0937 585.074 86.9336 588.258 80.8733C591.442 74.7664 595.86 70.0387 601.512 66.69C607.165 63.3415 613.701 61.6746 621.121 61.6896C628.961 61.7054 635.608 63.5622 641.062 67.2599C646.562 70.911 650.636 76.0759 653.285 82.7546C655.933 89.4333 656.923 97.2986 656.254 106.351L639.524 106.317L639.535 100.157C639.502 91.9435 638.066 85.9439 635.226 82.1581C632.386 78.3724 627.909 76.4734 621.796 76.461C614.889 76.4471 609.752 78.5834 606.385 82.8699C603.017 87.1098 601.327 93.3364 601.312 101.55C601.299 109.203 602.969 115.133 606.322 119.34C609.674 123.547 614.571 125.657 621.011 125.67C625.164 125.678 628.736 124.775 631.725 122.961C634.762 121.101 637.1 118.422 638.739 114.925L655.391 119.999C652.485 126.806 647.996 132.094 641.923 135.862C635.897 139.63 629.243 141.506 621.963 141.491ZM595.984 106.229L596.006 93.489L648.016 93.594L647.994 106.334L595.984 106.229Z" fill="#7B0925"/>
  <path d="M696.382 141.642C688.729 141.626 682.012 139.956 676.231 136.631C670.45 133.306 665.931 128.7 662.674 122.814C659.465 116.927 657.866 110.157 657.88 102.504C657.894 94.2439 659.493 87.0838 662.677 81.0235C665.86 74.9166 670.279 70.1889 675.931 66.8403C681.584 63.4917 688.12 61.8249 695.54 61.8398C703.38 61.8557 710.027 63.7124 715.48 67.4101C720.981 71.0612 725.055 76.2261 727.703 82.9048C730.352 89.5835 731.342 97.4488 730.673 106.501L713.943 106.467L713.953 100.307C713.921 92.0937 712.485 86.0941 709.644 82.3083C706.804 78.5226 702.328 76.6236 696.214 76.6112C689.308 76.5973 684.171 78.7336 680.803 83.0201C677.436 87.26 675.745 93.4866 675.731 101.7C675.718 109.353 677.388 115.283 680.74 119.49C684.093 123.697 688.989 125.807 695.429 125.82C699.583 125.828 703.154 124.925 706.144 123.111C709.181 121.251 711.519 118.572 713.158 115.076L729.809 120.149C726.904 126.957 722.415 132.244 716.342 136.012C710.315 139.78 703.662 141.656 696.382 141.642ZM670.403 106.379L670.425 93.6392L722.435 93.7442L722.413 106.484L670.403 106.379Z" fill="#7B0925"/>
  <path d="M736.434 139.623L736.565 64.0226L751.475 64.0527L751.443 82.4627L749.627 80.079C750.565 77.5609 751.805 75.2768 753.349 73.2265C754.939 71.1297 756.832 69.4069 759.028 68.058C760.897 66.8018 762.952 65.8259 765.193 65.1304C767.481 64.3884 769.815 63.9498 772.195 63.8146C774.576 63.6327 776.885 63.7307 779.125 64.1086L779.098 79.8585C776.859 79.2007 774.269 78.9854 771.329 79.2128C768.435 79.4403 765.82 80.2517 763.484 81.647C761.149 82.9023 759.233 84.5084 757.736 86.4654C756.286 88.4225 755.209 90.6603 754.505 93.1789C753.8 95.6508 753.446 98.3335 753.441 101.227L753.374 139.657L736.434 139.623Z" fill="#7B0925"/>
  <path d="M237.174 50.4346L237.251 5.94962L220.066 5.91499L220.076 0L260.676 0.0818195L260.666 5.99681L243.481 5.96218L243.404 50.4471L237.174 50.4346Z" fill="#7B0925"/>
  <path d="M289.577 50.5402L289.609 31.6052C289.612 29.8085 289.452 28.0815 289.128 26.4242C288.828 24.7669 288.282 23.2842 287.491 21.9759C286.723 20.6444 285.675 19.5922 284.346 18.8196C283.041 18.0469 281.385 17.6586 279.378 17.6545C277.815 17.6514 276.391 17.9169 275.107 18.4509C273.846 18.9617 272.76 19.7529 271.848 20.8244C270.936 21.8959 270.222 23.2478 269.706 24.8801C269.213 26.4891 268.965 28.3902 268.961 30.5836L264.868 29.3153C264.875 25.652 265.533 22.515 266.845 19.9043C268.179 17.2703 270.038 15.2557 272.42 13.8605C274.826 12.442 277.65 11.7361 280.894 11.7426C283.344 11.7475 285.431 12.1367 287.157 12.9102C288.882 13.6837 290.315 14.7132 291.456 15.9989C292.597 17.2612 293.493 18.6863 294.144 20.2743C294.795 21.839 295.247 23.4382 295.501 25.0721C295.778 26.6826 295.915 28.2112 295.913 29.6579L295.877 50.5529L289.577 50.5402ZM262.627 50.4859L262.714 0.0859258L268.314 0.0972113L268.266 27.9222L268.966 27.9236L268.927 50.4986L262.627 50.4859Z" fill="#7B0925"/>
  <path d="M317.854 51.6472C314.144 51.6397 310.902 50.8165 308.128 49.1776C305.378 47.5153 303.235 45.2127 301.7 42.2696C300.165 39.3031 299.401 35.8483 299.408 31.9049C299.415 27.7749 300.18 24.2065 301.702 21.1995C303.224 18.1693 305.339 15.8402 308.049 14.2123C310.782 12.5612 313.98 11.7393 317.643 11.7466C321.446 11.7543 324.677 12.6358 327.334 14.3912C330.014 16.1466 332.016 18.6473 333.341 21.8933C334.688 25.1394 335.265 29.0022 335.071 33.4818L328.771 33.4691L328.774 31.2291C328.713 26.5857 327.774 23.1188 325.957 20.8284C324.141 18.5148 321.437 17.3543 317.843 17.3471C313.993 17.3393 311.063 18.5701 309.052 21.0394C307.041 23.5086 306.032 27.0533 306.024 31.6733C306.016 36.1299 307.013 39.5853 309.016 42.0393C311.018 44.4934 313.874 45.7241 317.584 45.7316C320.081 45.7366 322.252 45.1693 324.097 44.0297C325.943 42.8901 327.392 41.248 328.446 39.1035L334.427 41.1805C332.952 44.5142 330.73 47.0998 327.764 48.9371C324.821 50.7512 321.518 51.6545 317.854 51.6472ZM303.921 33.419L303.929 28.414L331.859 28.4703L331.851 33.4753L303.921 33.419Z" fill="#7B0925"/>
  <path d="M38.4429 112.399L47.5 87.3278M47.5 87.3278L57.5 112.399M47.5 87.3278C25.583 84.4181 5.29898 72.987 4 44.5273M47.5 87.3278C57.8579 88.703 71.2481 86.2309 80.5 80.8986M80.5 80.8986C93.3841 73.4728 101.219 65.7894 105 44.5273M80.5 80.8986C80.5 97.2283 81.8804 135.777 101.511 137.01M105 136.913C104.043 136.913 102.87 136.953 101.511 137.01M105 136.913C103.786 137.05 102.623 137.079 101.511 137.01M105 136.913V44.5273M105 44.5273C105 36.6271 100.408 21.8971 88.3805 12.4871M19.8052 12.4871C22.8138 9.98652 32.4872 4.39856 38.4429 4.39856H69.0835C69.3117 4.39856 69.5406 4.41604 69.7661 4.45311C77.3356 5.6973 83.4762 8.6499 88.3805 12.4871M19.8052 12.4871C11.0098 19.7973 4 31.141 4 44.5273M19.8052 12.4871C34.2334 12.4871 50.0452 26.8415 51.5 53.892C51.6178 38.5107 60.9326 12.4871 88.3805 12.4871M4 44.5273V53.892C6.88429 143.415 79.2709 137.938 101.511 137.01" stroke="#7B0925" stroke-width="8"/>
  <circle cx="78" cy="41" r="6" fill="#7B0925"/>
  <circle cx="27" cy="42" r="6" fill="#7B0925"/>
</svg>
