<svg viewBox="0 0 109 142" fill="none" xmlns="http://www.w3.org/2000/svg">
  <!-- TheProfesseer — owl mark only (no wordmark) -->
  <path d="M38.4429 112.399L47.5 87.3278M47.5 87.3278L57.5 112.399M47.5 87.3278C25.583 84.4181 5.29898 72.987 4 44.5273M47.5 87.3278C57.8579 88.703 71.2481 86.2309 80.5 80.8986M80.5 80.8986C93.3841 73.4728 101.219 65.7894 105 44.5273M80.5 80.8986C80.5 97.2283 81.8804 135.777 101.511 137.01M105 136.913C104.043 136.913 102.87 136.953 101.511 137.01M105 136.913C103.786 137.05 102.623 137.079 101.511 137.01M105 136.913V44.5273M105 44.5273C105 36.6271 100.408 21.8971 88.3805 12.4871M19.8052 12.4871C22.8138 9.98652 32.4872 4.39856 38.4429 4.39856H69.0835C69.3117 4.39856 69.5406 4.41604 69.7661 4.45311C77.3356 5.6973 83.4762 8.6499 88.3805 12.4871M19.8052 12.4871C11.0098 19.7973 4 31.141 4 44.5273M19.8052 12.4871C34.2334 12.4871 50.0452 26.8415 51.5 53.892C51.6178 38.5107 60.9326 12.4871 88.3805 12.4871M4 44.5273V53.892C6.88429 143.415 79.2709 137.938 101.511 137.01" stroke="#FFFFFF" stroke-width="8"/>
  <circle cx="78" cy="41" r="6" fill="#FFFFFF"/>
  <circle cx="27" cy="42" r="6" fill="#FFFFFF"/>
</svg>
